<mxfile host="app.diagrams.net" modified="2024-01-19T03:26:59.796Z" agent="Mozilla/5.0 (Windows NT 10.0; Win64; x64) AppleWebKit/537.36 (KHTML, like Gecko) Chrome/120.0.0.0 Safari/537.36" version="22.1.21" etag="Q84jPjIn67_SqnyoS3Qr" type="github">
  <diagram name="페이지-1" id="02ZyAVyMd7_uaABPCepW">
    <mxGraphModel>
      <root>
        <mxCell id="0" />
        <mxCell id="1" parent="0" />
      </root>
    </mxGraphModel>
  </diagram>
</mxfile>
